<svg width="18" height="18" viewBox="0 0 18 18" fill="none" xmlns="http://www.w3.org/2000/svg">
<path d="M14.9912 0C16.6471 0 18 1.35294 18 3.00879V14.9912C18 16.6545 16.6545 18 14.9912 18H3.00879C1.35294 18 0 16.6471 0 14.9912V3.00879C0 1.35294 1.35294 0 3.00879 0H14.9912ZM9.00391 4.38379C7.76944 4.38379 6.6086 4.86409 5.73633 5.73633C4.86409 6.6086 4.38379 7.76944 4.38379 9.00391C4.38384 10.2383 4.8641 11.3993 5.73633 12.2715C6.60858 13.1436 7.76951 13.624 9.00391 13.624C10.2383 13.624 11.3919 13.1437 12.2715 12.2715C13.1437 11.3993 13.624 10.2383 13.624 9.00391C13.624 7.76951 13.1436 6.60858 12.2715 5.73633C11.3993 4.8641 10.2383 4.38384 9.00391 4.38379ZM9.00391 5.36719C11.0071 5.3673 12.6332 7.00069 12.6406 9.00391C12.6405 11.0144 11.007 12.6405 9.00391 12.6406C6.9933 12.6406 5.3673 11.0071 5.36719 9.00391C5.36719 6.99323 7.00062 5.36719 9.00391 5.36719ZM14.5244 2.45801C14.0346 2.45807 13.6377 2.85488 13.6377 3.34473C13.6378 3.83451 14.0346 4.23138 14.5244 4.23145C15.0142 4.2314 15.412 3.83453 15.4121 3.34473C15.4121 2.85487 15.0143 2.45806 14.5244 2.45801Z" fill="#2FA639"/>
</svg>
