<svg width="18" height="18" viewBox="0 0 18 18" fill="none" xmlns="http://www.w3.org/2000/svg">
<path d="M4.06459 5.91895H0.303375V17.9132H4.06459V5.91895Z" fill="#2FA639"/>
<path d="M14.2389 5.65908C14.1003 5.64174 13.953 5.63308 13.8056 5.62441C11.6997 5.53775 10.5124 6.7857 10.0964 7.32302C9.98376 7.47034 9.93176 7.55701 9.93176 7.55701V5.95373H6.33521V17.948H9.93176H10.0964C10.0964 16.726 10.0964 15.5127 10.0964 14.2908C10.0964 13.6321 10.0964 12.9735 10.0964 12.3148C10.0964 11.5002 10.0358 10.6336 10.4431 9.88826C10.7897 9.26428 11.4137 8.95229 12.1157 8.95229C14.1956 8.95229 14.2389 10.8329 14.2389 11.0062C14.2389 11.0149 14.2389 11.0235 14.2389 11.0235V18H18.0002V10.1742C18.0002 7.49634 16.6395 5.91907 14.2389 5.65908Z" fill="#2FA639"/>
<path d="M2.18393 4.36784C3.39008 4.36784 4.36786 3.39007 4.36786 2.18392C4.36786 0.977775 3.39008 0 2.18393 0C0.977774 0 0 0.977775 0 2.18392C0 3.39007 0.977774 4.36784 2.18393 4.36784Z" fill="#2FA639"/>
</svg>
